<svg width="42" height="42" viewBox="0 0 42 42" fill="none" xmlns="http://www.w3.org/2000/svg">
<path d="M20.625 0C9.25203 0 0 9.25203 0 20.625C0 31.998 9.25203 41.25 20.625 41.25C31.998 41.25 41.25 31.998 41.25 20.625C41.25 9.25203 31.998 0 20.625 0ZM20.625 3.4375C30.1383 3.4375 37.8125 11.1117 37.8125 20.625C37.8125 30.1383 30.1383 37.8125 20.625 37.8125C11.1117 37.8125 3.4375 30.1383 3.4375 20.625C3.4375 11.1117 11.1117 3.4375 20.625 3.4375ZM20.625 10.3125C16.8438 10.3125 13.75 13.4062 13.75 17.1875H17.1875C17.1875 15.2677 18.7052 13.75 20.625 13.75C22.5448 13.75 24.0625 15.2677 24.0625 17.1875C24.062 17.8298 23.8594 18.4557 23.4834 18.9764C23.1073 19.4971 22.5769 19.8863 21.9673 20.0887L21.2695 20.3019C20.5826 20.5333 19.9853 20.974 19.5614 21.5622C19.1376 22.1503 18.9085 22.8563 18.9062 23.5812V25.7812H22.3438V23.5795L23.0416 23.3647C24.3366 22.9294 25.4629 22.0996 26.2624 20.9918C27.062 19.884 27.4948 18.5537 27.5 17.1875C27.5 13.4062 24.4062 10.3125 20.625 10.3125ZM18.9062 27.5V30.9375H22.3438V27.5H18.9062Z" fill="#0099E1"/>
</svg>
